#N canvas 221 224 795 443 10;
#X declare -lib Gem;
#X obj 551 123 table teste;
#X obj 16 55 bng 15 250 50 0 empty empty Calculate 17 7 0 10 -262144
-1 -1;
#X msg 127 81 get \$1 0;
#X msg 140 122 get_frame \$1;
#X msg 551 75 \; teste resize 115268 \; teste read beet.txt;
#X floatatom 169 178 5 0 0 0 - - -;
#X floatatom 128 60 5 0 0 0 - - -;
#N canvas 708 398 567 377 gemwin 0;
#X obj 102 121 tgl 15 0 \$0-gemstart \$0-gemstart empty 17 7 0 10 -262144
-1 -1 0 1;
#X obj 223 102 r \$0-gemstart;
#X obj 223 123 select 1 0;
#X msg 104 204 create \, 1;
#X obj 428 84 inlet;
#X obj 138 274 outlet;
#X text 118 122 rendering;
#X msg 241 211 0 \, destroy;
#X obj 137 248 gemwin;
#X msg 51 72 0;
#X obj 47 46 r stop;
#X connect 1 0 2 0;
#X connect 2 0 3 0;
#X connect 2 1 7 0;
#X connect 3 0 8 0;
#X connect 4 0 8 0;
#X connect 7 0 8 0;
#X connect 8 0 5 0;
#X connect 9 0 8 0;
#X connect 10 0 9 0;
#X coords 0 -1 1 1 85 40 1 100 100;
#X restore 18 346 pd gemwin;
#N canvas 477 251 800 440 Gem.init 0;
#X msg 23 326 frame \$1;
#X floatatom 23 305 5 0 0 0 - - -;
#X obj 103 30 loadbang;
#X obj 451 354 r \$0-gemwin-settings;
#X obj 451 381 outlet;
#X obj 23 347 s \$0-gemwin-settings;
#X obj 172 372 s \$0-gemwin-settings;
#X obj 216 311 s \$0-gemwin-settings;
#X obj 599 179 s \$0-gemwin-settings;
#X obj 599 139 tgl 15 0 empty empty empty 17 7 0 10 -262144 -1 -1 0
1;
#X msg 599 158 fullscreen \$1;
#X obj 599 263 s \$0-gemwin-settings;
#X obj 599 223 tgl 15 0 empty empty empty 17 7 0 10 -262144 -1 -1 0
1;
#X msg 599 242 border \$1;
#X obj 351 206 s \$0-gemwin-settings;
#X msg 475 67 reset;
#X obj 475 92 s \$0-gemwin-settings;
#X obj 341 146 s \$0-gemwin-settings;
#X obj 103 51 t b b b b b b b b;
#X obj 539 313 s \$0-gemwin-settings;
#X msg 539 292 print;
#X msg 341 123 title spectrogram;
#X obj 307 264 s \$0-gemwin-settings;
#X msg 307 243 lighting \$1;
#X obj 307 224 tgl 15 0 empty empty empty 17 7 0 10 -262144 -1 -1 0
1;
#X obj 178 18 bng 15 250 50 0 empty empty empty 17 7 0 10 -262144 -1
-1;
#X msg 352 183 offset 100 0;
#X msg 216 292 dimen 800 400;
#X msg 23 277 1;
#X msg 171 341 color 0 0 0;
#X obj 342 355 s height;
#X obj 402 339 s width;
#X obj 371 293 loadbang;
#X msg 345 328 16;
#X msg 400 314 8;
#X connect 0 0 5 0;
#X connect 1 0 0 0;
#X connect 2 0 18 0;
#X connect 3 0 4 0;
#X connect 9 0 10 0;
#X connect 10 0 8 0;
#X connect 12 0 13 0;
#X connect 13 0 11 0;
#X connect 15 0 16 0;
#X connect 18 0 28 0;
#X connect 18 1 29 0;
#X connect 18 2 27 0;
#X connect 18 4 26 0;
#X connect 18 5 21 0;
#X connect 18 7 15 0;
#X connect 20 0 19 0;
#X connect 21 0 17 0;
#X connect 23 0 22 0;
#X connect 24 0 23 0;
#X connect 25 0 18 0;
#X connect 26 0 14 0;
#X connect 27 0 7 0;
#X connect 28 0 1 0;
#X connect 29 0 6 0;
#X connect 32 0 33 0;
#X connect 32 0 34 0;
#X connect 33 0 30 0;
#X connect 34 0 31 0;
#X restore 19 327 pd Gem.init;
#X obj 169 199 s num-frames;
#X obj 16 245 s mag-table;
#X obj 16 223 list prepend 0;
#N canvas 1 87 450 300 (subpatch) 0;
#X array mag-table 128 float 0;
#X coords 0 20 127 0 200 140 1;
#X restore 551 185 graph;
#X obj 38 102 r frame;
#X floatatom 140 103 5 0 0 0 - - -;
#X obj 551 144 declare -lib Gem;
#X obj 562 368 tabplay~ teste;
#X obj 554 398 dac~;
#X obj 563 341 bng 15 250 50 0 empty empty Listen_sample 17 7 0 10
-262144 -1 -1;
#X text 284 54 arguments:;
#X text 286 71 \$1 (s) sound array;
#X text 286 85 \$2 (f) window-size (ms);
#X text 328 130 -3 -> halfregu;
#X text 329 143 -2 -> linear;
#X text 327 155 -1 -> halfwave rect;
#X text 333 169 0 -> distortion Bin (0||1);
#X text 326 183 >0 -> non linear fact;
#X text 285 97 \$3 (f) time const (leakyIntegr);
#X text 287 197 \$5 (f) sound samplerate;
#N canvas 315 22 787 718 espectrogram 0;
#X obj 226 592 color;
#X floatatom 249 499 5 0 0 0 - - -;
#X obj 226 705 rectangle;
#X floatatom 295 531 5 0 0 0 - - -;
#X obj 167 77 route gem_state;
#X obj 167 97 route float;
#X obj 167 56 t a a;
#X obj 167 29 gemhead 50;
#X obj 226 277 gemlist;
#X obj 231 229 until;
#X obj 231 251 t b b;
#X obj 251 327 f;
#X obj 281 328 + 1;
#X msg 285 256 0;
#X obj 231 117 t b b;
#X obj 227 303 separator;
#X obj 231 198 f;
#X obj 292 179 * 128;
#X obj 292 152 r num-frames;
#X obj 294 430 mod 128;
#X obj 244 352 t f f f f;
#X obj 520 366 div 128;
#X obj 520 393 change;
#X msg 518 418 get_frame \$1;
#X obj 518 442 s frame;
#X obj 374 467 tabread mag-table;
#X obj 242 430 /;
#X obj 256 408 r num-frames;
#X obj 243 453 - 0.5;
#X obj 250 477 * 16;
#X obj 296 480 - 0.5;
#X obj 297 457 / 128;
#X obj 297 508 * 8;
#X obj 373 413 mod 128;
#X floatatom 383 439 5 0 0 0 - - -;
#X obj 373 538 hsv2rgb;
#X obj 227 559 translateXYZ;
#X msg 374 512 1 0 \$1;
#X obj 393 342 s stop;
#X obj 394 291 >=;
#X obj 395 315 del 1;
#X obj 369 634 r width;
#X obj 370 654 t f b;
#X msg 397 675 128;
#X obj 371 698 /;
#X obj 249 626 r height;
#X obj 252 680 /;
#X obj 251 660 f;
#X obj 307 614 r num-frames;
#X obj 306 638 t b f;
#X floatatom 315 678 5 0 0 0 - - -;
#X floatatom 423 695 5 0 0 0 - - -;
#X obj 243 388 div 128;
#X obj 374 489 / 5;
#X connect 0 0 2 0;
#X connect 1 0 36 1;
#X connect 3 0 36 2;
#X connect 4 0 5 0;
#X connect 5 1 14 0;
#X connect 6 0 4 0;
#X connect 6 1 8 1;
#X connect 7 0 6 0;
#X connect 8 0 15 0;
#X connect 9 0 10 0;
#X connect 10 0 8 0;
#X connect 10 1 11 0;
#X connect 11 0 12 0;
#X connect 11 0 20 0;
#X connect 11 0 39 0;
#X connect 12 0 11 1;
#X connect 13 0 11 1;
#X connect 14 0 16 0;
#X connect 14 1 13 0;
#X connect 15 0 36 0;
#X connect 16 0 9 0;
#X connect 17 0 16 1;
#X connect 17 0 39 1;
#X connect 18 0 17 0;
#X connect 19 0 31 0;
#X connect 20 0 52 0;
#X connect 20 1 19 0;
#X connect 20 2 33 0;
#X connect 20 3 21 0;
#X connect 21 0 22 0;
#X connect 22 0 23 0;
#X connect 23 0 24 0;
#X connect 25 0 53 0;
#X connect 26 0 28 0;
#X connect 27 0 26 1;
#X connect 28 0 29 0;
#X connect 29 0 1 0;
#X connect 30 0 32 0;
#X connect 31 0 30 0;
#X connect 32 0 3 0;
#X connect 33 0 34 0;
#X connect 33 0 25 0;
#X connect 35 0 0 1;
#X connect 36 0 0 0;
#X connect 37 0 35 0;
#X connect 39 0 40 0;
#X connect 40 0 38 0;
#X connect 41 0 42 0;
#X connect 42 0 44 0;
#X connect 42 1 43 0;
#X connect 43 0 44 1;
#X connect 44 0 2 2;
#X connect 44 0 51 0;
#X connect 45 0 47 0;
#X connect 46 0 2 1;
#X connect 46 0 50 0;
#X connect 47 0 46 0;
#X connect 48 0 49 0;
#X connect 49 0 47 0;
#X connect 49 1 46 1;
#X connect 52 0 26 0;
#X connect 53 0 37 0;
#X restore 13 284 pd espectrogram;
#X text 285 112 \$4 (f) non-linear factor:;
#X obj 16 152 wav2aud teste 8 8 -2 44100;
#X text 547 50 1);
#X text -3 53 2);
#X text 1 369 3);
#X text 214 307 1) insert audio sample;
#X text 214 327 2) Calculate the auditory transform;
#X text 215 348 3) Plot the auditory spectrogram;
#X text 208 282 Example Steps:;
#X text 163 46;
#X text -2 -22 Auditory Transform - Simulation of the periferal auditory
procesing.;
#X text -3 10 PD implementation of wav2aud funtion from NSLtools library
for matlab.;
#X connect 1 0 31 0;
#X connect 2 0 31 0;
#X connect 3 0 31 0;
#X connect 5 0 9 0;
#X connect 6 0 2 0;
#X connect 8 0 7 0;
#X connect 11 0 10 0;
#X connect 13 0 31 0;
#X connect 14 0 3 0;
#X connect 16 0 17 0;
#X connect 16 0 17 1;
#X connect 18 0 16 0;
#X connect 31 0 11 0;
#X connect 31 1 5 0;
